<svg width="577" height="95" viewBox="0 0 577 95" fill="none" xmlns="http://www.w3.org/2000/svg">
<path d="M121.54 62.2C121.493 62.06 121.47 61.85 121.47 61.57C121.47 60.87 121.75 60.31 122.31 59.89C122.917 59.47 123.617 59.26 124.41 59.26C124.97 59.26 125.46 59.4 125.88 59.68C126.347 59.96 126.627 60.38 126.72 60.94C128.12 65.42 133.183 67.66 141.91 67.66C145.83 67.66 149.33 67.03 152.41 65.77C155.537 64.4633 157.1 62.2467 157.1 59.12C157.1 57.2067 156.423 55.7833 155.07 54.85C153.763 53.87 152.13 53.2167 150.17 52.89C148.257 52.5167 145.55 52.19 142.05 51.91C137.757 51.5833 134.28 51.14 131.62 50.58C128.96 49.9733 126.697 48.83 124.83 47.15C122.963 45.47 122.03 43.02 122.03 39.8C122.03 36.9067 122.987 34.48 124.9 32.52C126.813 30.56 129.24 29.1133 132.18 28.18C135.12 27.2467 138.13 26.78 141.21 26.78C151.897 26.78 158.383 29.9067 160.67 36.16C160.763 36.5333 160.81 36.79 160.81 36.93C160.81 37.5833 160.53 38.12 159.97 38.54C159.41 38.9133 158.78 39.1 158.08 39.1C157.007 39.1 156.283 38.68 155.91 37.84C154.977 35.5067 153.157 33.9433 150.45 33.15C147.79 32.3567 144.733 31.96 141.28 31.96C139.367 31.96 137.36 32.2167 135.26 32.73C133.16 33.1967 131.34 34.0133 129.8 35.18C128.26 36.3467 127.49 37.91 127.49 39.87C127.49 41.7833 128.143 43.23 129.45 44.21C130.757 45.19 132.413 45.8667 134.42 46.24C136.427 46.6133 139.157 46.94 142.61 47.22C147.183 47.64 150.707 48.1067 153.18 48.62C155.7 49.0867 157.87 50.1367 159.69 51.77C161.557 53.3567 162.49 55.7833 162.49 59.05C162.49 62.3633 161.44 65.0467 159.34 67.1C157.24 69.1533 154.627 70.6 151.5 71.44C148.373 72.28 145.177 72.7 141.91 72.7C137.383 72.7 133.113 71.9067 129.1 70.32C125.087 68.6867 122.567 65.98 121.54 62.2ZM201.234 47.57V30C201.234 29.2067 201.491 28.6 202.004 28.18C202.517 27.7133 203.124 27.48 203.824 27.48C204.524 27.48 205.107 27.7133 205.574 28.18C206.087 28.6 206.344 29.2067 206.344 30V69.34C206.344 70.18 206.087 70.8333 205.574 71.3C205.061 71.7667 204.454 72 203.754 72C203.054 72 202.447 71.7667 201.934 71.3C201.467 70.8333 201.234 70.18 201.234 69.34V51.98H175.474V69.41C175.474 70.25 175.241 70.9033 174.774 71.37C174.307 71.79 173.747 72 173.094 72C172.394 72 171.764 71.7667 171.204 71.3C170.691 70.8333 170.434 70.2033 170.434 69.41V30C170.434 29.2067 170.667 28.6 171.134 28.18C171.647 27.7133 172.231 27.48 172.884 27.48C173.584 27.48 174.191 27.7133 174.704 28.18C175.217 28.6467 175.474 29.2533 175.474 30V47.57H201.234ZM236.627 26.78C237.654 26.78 238.4 27.2233 238.867 28.11L259.517 68.64C259.704 69.0133 259.797 69.3867 259.797 69.76C259.797 70.4133 259.54 70.95 259.027 71.37C258.514 71.79 257.884 72 257.137 72C256.064 72 255.294 71.5567 254.827 70.67L249.787 60.73H223.467L218.287 70.74C217.82 71.58 217.12 72 216.187 72C215.487 72 214.857 71.7667 214.297 71.3C213.737 70.8333 213.457 70.2733 213.457 69.62C213.457 69.34 213.527 69.0367 213.667 68.71L234.317 28.11C234.504 27.69 234.807 27.3633 235.227 27.13C235.694 26.8967 236.16 26.78 236.627 26.78ZM225.567 56.32H247.617L236.627 34.27L225.567 56.32ZM272.276 69.55C272.276 70.2967 272.019 70.9033 271.506 71.37C270.992 71.79 270.386 72 269.686 72C269.032 72 268.449 71.79 267.936 71.37C267.422 70.95 267.166 70.3667 267.166 69.62V29.93C267.166 29.1833 267.399 28.6 267.866 28.18C268.332 27.7133 268.962 27.48 269.756 27.48H286.346C290.266 27.48 293.579 28.1567 296.286 29.51C299.039 30.8167 301.116 32.6133 302.516 34.9C303.916 37.1867 304.616 39.73 304.616 42.53C304.616 46.17 303.589 49.18 301.536 51.56C299.482 53.94 296.356 55.48 292.156 56.18L302.866 67.73C303.472 68.3367 303.776 68.9667 303.776 69.62C303.776 70.2733 303.519 70.8333 303.006 71.3C302.492 71.7667 301.909 72 301.256 72C300.556 72 299.926 71.6967 299.366 71.09L285.856 56.46H272.276V69.55ZM286.416 52.05C290.709 52.05 293.952 51.1867 296.146 49.46C298.339 47.7333 299.436 45.5167 299.436 42.81C299.389 39.73 298.199 37.1867 295.866 35.18C293.532 33.1733 290.382 32.17 286.416 32.17H272.276V52.05H286.416ZM345.862 67.38C346.608 67.38 347.192 67.6367 347.612 68.15C348.032 68.6167 348.242 69.1767 348.242 69.83C348.242 70.4367 348.032 70.95 347.612 71.37C347.192 71.79 346.608 72 345.862 72H316.392C315.458 72 314.688 71.6967 314.082 71.09C313.475 70.4833 313.172 69.76 313.172 68.92V30.49C313.172 29.65 313.475 28.95 314.082 28.39C314.688 27.7833 315.458 27.48 316.392 27.48H345.932C346.632 27.48 347.168 27.69 347.542 28.11C347.915 28.53 348.102 29.0433 348.102 29.65C348.102 30.2567 347.892 30.7933 347.472 31.26C347.098 31.7267 346.562 31.96 345.862 31.96H318.212V47.71H344.532C345.185 47.71 345.698 47.9433 346.072 48.41C346.492 48.83 346.702 49.3667 346.702 50.02C346.702 50.58 346.515 51.0933 346.142 51.56C345.768 51.98 345.232 52.19 344.532 52.19H318.212V67.38H345.862ZM354.099 62.2C354.052 62.06 354.029 61.85 354.029 61.57C354.029 60.87 354.309 60.31 354.869 59.89C355.475 59.47 356.175 59.26 356.969 59.26C357.529 59.26 358.019 59.4 358.439 59.68C358.905 59.96 359.185 60.38 359.279 60.94C360.679 65.42 365.742 67.66 374.469 67.66C378.389 67.66 381.889 67.03 384.969 65.77C388.095 64.4633 389.659 62.2467 389.659 59.12C389.659 57.2067 388.982 55.7833 387.629 54.85C386.322 53.87 384.689 53.2167 382.729 52.89C380.815 52.5167 378.109 52.19 374.609 51.91C370.315 51.5833 366.839 51.14 364.179 50.58C361.519 49.9733 359.255 48.83 357.389 47.15C355.522 45.47 354.589 43.02 354.589 39.8C354.589 36.9067 355.545 34.48 357.459 32.52C359.372 30.56 361.799 29.1133 364.739 28.18C367.679 27.2467 370.689 26.78 373.769 26.78C384.455 26.78 390.942 29.9067 393.229 36.16C393.322 36.5333 393.369 36.79 393.369 36.93C393.369 37.5833 393.089 38.12 392.529 38.54C391.969 38.9133 391.339 39.1 390.639 39.1C389.565 39.1 388.842 38.68 388.469 37.84C387.535 35.5067 385.715 33.9433 383.009 33.15C380.349 32.3567 377.292 31.96 373.839 31.96C371.925 31.96 369.919 32.2167 367.819 32.73C365.719 33.1967 363.899 34.0133 362.359 35.18C360.819 36.3467 360.049 37.91 360.049 39.87C360.049 41.7833 360.702 43.23 362.009 44.21C363.315 45.19 364.972 45.8667 366.979 46.24C368.985 46.6133 371.715 46.94 375.169 47.22C379.742 47.64 383.265 48.1067 385.739 48.62C388.259 49.0867 390.429 50.1367 392.249 51.77C394.115 53.3567 395.049 55.7833 395.049 59.05C395.049 62.3633 393.999 65.0467 391.899 67.1C389.799 69.1533 387.185 70.6 384.059 71.44C380.932 72.28 377.735 72.7 374.469 72.7C369.942 72.7 365.672 71.9067 361.659 70.32C357.645 68.6867 355.125 65.98 354.099 62.2ZM408.173 69.62C408.173 70.3667 407.916 70.95 407.403 71.37C406.936 71.79 406.353 72 405.653 72C404.953 72 404.346 71.8133 403.833 71.44C403.366 71.02 403.133 70.4367 403.133 69.69V29.93C403.133 29.23 403.389 28.6467 403.903 28.18C404.416 27.7133 405.023 27.48 405.723 27.48H420.913C424.786 27.48 428.053 28.25 430.713 29.79C433.373 31.2833 435.356 33.2667 436.663 35.74C438.016 38.1667 438.693 40.78 438.693 43.58C438.693 46.4733 438.016 49.0867 436.663 51.42C435.356 53.7067 433.349 55.5267 430.643 56.88C427.936 58.2333 424.623 58.91 420.703 58.91H408.173V69.62ZM420.703 54.36C423.643 54.36 426.093 53.8467 428.053 52.82C430.013 51.7933 431.436 50.4633 432.323 48.83C433.256 47.1967 433.723 45.4467 433.723 43.58C433.723 41.62 433.209 39.7533 432.183 37.98C431.156 36.2067 429.686 34.7833 427.773 33.71C425.859 32.59 423.596 32.03 420.983 32.03H408.173V54.36H420.703ZM461.871 26.78C462.898 26.78 463.645 27.2233 464.111 28.11L484.761 68.64C484.948 69.0133 485.041 69.3867 485.041 69.76C485.041 70.4133 484.785 70.95 484.271 71.37C483.758 71.79 483.128 72 482.381 72C481.308 72 480.538 71.5567 480.071 70.67L475.031 60.73H448.711L443.531 70.74C443.065 71.58 442.365 72 441.431 72C440.731 72 440.101 71.7667 439.541 71.3C438.981 70.8333 438.701 70.2733 438.701 69.62C438.701 69.34 438.771 69.0367 438.911 68.71L459.561 28.11C459.748 27.69 460.051 27.3633 460.471 27.13C460.938 26.8967 461.405 26.78 461.871 26.78ZM450.811 56.32H472.861L461.871 34.27L450.811 56.32ZM511.486 26.78C518.113 26.78 523.596 29.09 527.936 33.71C528.356 34.1767 528.566 34.69 528.566 35.25C528.566 35.8567 528.286 36.4167 527.726 36.93C527.213 37.3967 526.629 37.63 525.976 37.63C525.416 37.63 524.879 37.3733 524.366 36.86C522.546 34.9467 520.586 33.5933 518.486 32.8C516.386 31.96 514.099 31.54 511.626 31.54C508.779 31.54 505.979 32.1 503.226 33.22C500.473 34.2933 498.163 36.16 496.296 38.82C494.429 41.4333 493.496 44.8867 493.496 49.18C493.496 52.6333 494.289 55.7833 495.876 58.63C497.509 61.4767 499.679 63.74 502.386 65.42C505.093 67.0533 508.033 67.87 511.206 67.87C513.913 67.87 516.456 67.2867 518.836 66.12C521.263 64.9533 523.293 63.32 524.926 61.22C525.346 60.6133 525.929 60.31 526.676 60.31C527.329 60.31 527.936 60.5433 528.496 61.01C529.056 61.4767 529.336 62.0367 529.336 62.69C529.336 63.1567 529.196 63.6 528.916 64.02C527.049 66.68 524.459 68.8033 521.146 70.39C517.833 71.93 514.473 72.7 511.066 72.7C507.099 72.7 503.389 71.6967 499.936 69.69C496.483 67.6367 493.706 64.8133 491.606 61.22C489.553 57.58 488.526 53.5433 488.526 49.11C488.526 44.1167 489.716 39.94 492.096 36.58C494.523 33.22 497.486 30.7467 500.986 29.16C504.533 27.5733 508.033 26.78 511.486 26.78ZM570.285 67.38C571.032 67.38 571.615 67.6367 572.035 68.15C572.455 68.6167 572.665 69.1767 572.665 69.83C572.665 70.4367 572.455 70.95 572.035 71.37C571.615 71.79 571.032 72 570.285 72H540.815C539.882 72 539.112 71.6967 538.505 71.09C537.899 70.4833 537.595 69.76 537.595 68.92V30.49C537.595 29.65 537.899 28.95 538.505 28.39C539.112 27.7833 539.882 27.48 540.815 27.48H570.355C571.055 27.48 571.592 27.69 571.965 28.11C572.339 28.53 572.525 29.0433 572.525 29.65C572.525 30.2567 572.315 30.7933 571.895 31.26C571.522 31.7267 570.985 31.96 570.285 31.96H542.635V47.71H568.955C569.609 47.71 570.122 47.9433 570.495 48.41C570.915 48.83 571.125 49.3667 571.125 50.02C571.125 50.58 570.939 51.0933 570.565 51.56C570.192 51.98 569.655 52.19 568.955 52.19H542.635V67.38H570.285Z" fill="black"/>
<rect width="63" height="63" rx="12" fill="#FF7043"/>
<rect x="31" y="32" width="63" height="63" rx="12" fill="#526ED3"/>
<mask id="mask0_4_99" style="mask-type:alpha" maskUnits="userSpaceOnUse" x="0" y="0" width="63" height="63">
<rect width="63" height="63" rx="12" fill="#FF8D69"/>
</mask>
<g mask="url(#mask0_4_99)">
<rect x="31" y="32" width="63" height="63" rx="12" fill="#7574BE"/>
</g>
</svg>
